<?xml version="1.0" encoding="UTF-8" standalone="no"?>
<!-- Created with Inkscape (http://www.inkscape.org/) -->

<svg
   width="1920px"
   height="350px"
   viewBox="0 0 1920 350"
   version="1.1"
   id="SVGRoot"
   xmlns="http://www.w3.org/2000/svg"
   xmlns:svg="http://www.w3.org/2000/svg">
  <defs
     id="defs12179" />
  <g
     id="layer1">
    <path
       style="fill:#adefd1"
       id="path12253"
       d="m -49.548566,340.26219 c 9.090856,3.18461 18.251002,6.07418 27.597721,8.41063 4.94339,1.13019 9.907185,2.24087 14.6748345,3.98219 7.37303384,2.85635 14.5495506,6.17926 21.7234255,9.49552 12.046351,5.15716 23.867166,10.92481 36.156833,15.50355 4.079423,1.51986 8.205254,2.91213 12.30788,4.3682 16.146889,5.33518 32.51066,9.98134 48.945712,14.33591 5.74129,1.52119 20.63924,5.34529 26.94276,6.71542 4.28763,0.93196 8.6125,1.68348 12.91875,2.52521 24.67756,3.88675 49.75672,4.53932 74.69651,4.18591 15.75999,-0.0152 31.07991,-3.45735 46.18986,-7.57294 1.90502,-0.52126 3.8141,-1.02784 5.71504,-1.56378 4.43561,-1.25055 7.12225,-2.13531 11.43784,-3.19238 5.4893,-1.34455 11.05965,-2.40642 16.59407,-3.54302 15.36462,-3.16549 31.01296,-4.67044 46.55648,-6.68046 24.44727,-2.81821 48.53041,-7.80396 72.61501,-12.71914 19.72195,-3.75376 39.34932,-8.01086 59.12939,-11.4567 12.83443,-2.47207 25.90723,-3.18301 38.93154,-3.87071 28.47002,-1.14944 56.96796,-1.45351 85.45816,-1.30897 30.75819,0.92867 61.51178,2.07787 92.25202,3.48528 14.83879,0.52157 29.63678,1.29273 44.40874,2.78194 16.3823,1.25533 32.60447,3.75482 48.80048,6.43388 25.22759,4.89419 51.00022,5.44742 76.6071,6.15024 26.24012,0.68435 52.47389,0.86088 78.68875,-0.54821 15.51493,-0.85297 30.93325,-2.78639 46.3778,-4.39222 7.81176,-0.81222 22.32236,-2.04755 29.55976,-2.68268 29.6126,-2.87435 59.3311,-4.4604 88.9566,-7.1859 17.0955,-1.57275 28.7104,-2.96323 45.6029,-4.86595 34.9585,-4.71521 70.1501,-6.97909 105.3838,-8.12786 26.9644,-0.22669 53.9977,-1.53409 80.9581,-0.27988 4.5365,0.21105 9.0609,0.63053 13.5913,0.9458 26.5559,2.50243 52.9356,6.44751 79.2902,10.48865 26.0137,4.02159 51.9886,8.24351 78.0577,11.90755 23.4681,3.56558 47.0542,6.15223 70.6516,8.66192 36.2676,4.98386 72.8444,7.05759 109.3882,8.72274 27.8526,1.45856 55.7365,0.9887 83.6077,0.65283 16.779,-0.3251 33.6051,-0.19584 50.3582,-1.35451 9.649,-0.66735 11.9437,-1.0988 21.5666,-2.31908 17.3774,-2.72531 34.5613,-6.7828 51.3026,-12.19226 10.2709,-3.31871 15.7043,-5.55779 25.5851,-9.36518 8.9712,-3.66348 17.8777,-7.47849 26.8416,-11.15929 61.7976,-25.39795 25.8795,-112.79308 -35.9182,-87.39513 v 0 c -8.3639,3.44013 -16.6902,6.96676 -25.0402,10.44051 -6.0716,2.36534 -12.3979,4.9228 -18.5911,6.96737 -11.8657,3.91728 -24.0427,6.89807 -36.356,9.00361 -5.6158,0.75599 -8.5977,1.24844 -14.2052,1.654 -15.5259,1.12292 -31.1313,0.89995 -46.682,1.23862 -26.0628,0.31408 -52.138,0.80637 -78.1838,-0.56247 -34.6404,-1.5665 -69.311,-3.5207 -103.6841,-8.29044 -22.5432,-2.39589 -45.077,-4.84969 -67.4946,-8.27243 -25.6774,-3.60628 -51.2596,-7.77731 -76.8829,-11.73495 -29.0269,-4.4509 -58.0898,-8.76698 -87.3537,-11.37283 -5.8824,-0.37585 -11.7586,-0.86438 -17.6471,-1.12757 -28.7331,-1.28423 -57.5372,0.0136 -86.2736,0.30553 -37.7295,1.25656 -75.4182,3.66161 -112.8586,8.67168 -15.1499,1.71057 -27.5745,3.18863 -42.8181,4.59362 -29.7794,2.74474 -59.6542,4.32691 -89.4203,7.22548 -10.0518,0.88362 -21.86718,1.87661 -31.99934,2.92888 -13.60451,1.41289 -27.18272,3.14482 -40.84723,3.92553 -23.63481,1.32922 -47.29167,0.99393 -70.95033,0.44106 -21.30223,-0.57034 -42.78148,-0.77368 -63.76198,-4.92037 -18.18655,-3.00333 -36.4115,-5.76605 -54.79937,-7.22893 -16.46629,-1.63743 -32.95867,-2.58675 -49.49724,-3.1527 -32.02698,-1.4652 -64.06805,-2.67995 -96.1156,-3.58298 -30.34366,-0.13962 -60.69625,0.17166 -91.01681,1.44573 -16.77691,0.92486 -33.59273,1.99257 -50.12842,5.14928 -20.64315,3.63052 -41.14796,7.98772 -61.72837,11.94945 -21.8405,4.45941 -43.66413,9.06718 -65.84061,11.591 -17.86098,2.31206 -35.82694,4.10976 -53.46784,7.83666 -13.34212,2.74768 -26.61752,5.73964 -39.65649,9.71409 -7.44455,2.05114 -14.87713,4.27135 -22.68097,4.2317 -18.51021,0.30533 -37.11567,-0.0902 -55.48707,-2.51013 -25.51564,-4.73673 -50.44539,-12.3123 -75.227317,-19.90965 -2.940721,-1.02146 -5.898424,-1.99528 -8.822163,-3.06438 C 74.765338,285.9187 64.563672,280.79016 54.094917,276.38285 44.262073,271.83748 34.39462,267.33538 24.228654,263.57372 16.588053,260.905 8.8011805,258.69216 0.88639824,256.98596 c -1.56165068,-0.3871 -3.16434774,-0.6112 -4.70725894,-1.0673 -3.733599,-1.10368 -7.3342393,-2.78728 -11.1329553,-3.66772 -0.340528,-0.0789 0.62812,0.30695 0.942181,0.46043 -61.90778,-25.12841 -97.444715,62.42241 -35.536931,87.55082 z" />
    <path
       style="fill:#adefd1"
       id="path12255"
       d="m 1442.4664,302.07881 c -27.0128,-0.85164 -54.0458,-0.91018 -81.0698,-1.03847 -27.4514,0.074 -54.9455,-0.53825 -82.3791,0.81104 -4.6355,0.22799 -9.2628,0.60028 -13.8942,0.90042 -11.098,0.7016 -22.1477,1.91089 -33.1865,3.21847 -66.3401,7.93745 -55.1149,101.7565 11.2252,93.81905 v 0 c 9.3915,-1.13788 18.7959,-2.15588 28.2403,-2.75818 29.8013,-2.05336 59.6931,-1.56783 89.5465,-1.50366 24.9965,0.11821 49.9947,0.2469 74.9859,0.8135 66.6534,4.61857 73.1851,-89.64361 6.5317,-94.26217 z" />
    <path
       style="fill:#adefd1"
       id="path12259"
       d="m 124.5012,91.573965 c 5.38774,9.075365 10.89113,18.082015 16.41251,27.076555 2.79632,4.55525 9.23841,0.60065 6.44209,-3.9546 v 0 c -5.52526,-9.00058 -11.03155,-18.013822 -16.42378,-27.094866 -2.80928,-4.547272 -9.24009,-0.574361 -6.43082,3.972911 z" />
    <path
       style="fill:#adefd1"
       id="path12261"
       d="m 129.75517,201.86999 c 8.3475,13.66206 15.97971,27.74394 24.24435,41.45848 2.54251,3.98168 4.99666,8.01819 7.49483,12.02757 2.82668,4.53646 9.24222,0.53893 6.41553,-3.99754 v 0 c -2.47851,-3.97757 -4.91268,-7.9825 -7.43622,-11.93194 -8.45539,-14.02766 -16.18655,-28.48148 -24.88181,-42.35995 -3.39651,-4.12716 -9.23319,0.67623 -5.83668,4.80338 z" />
    <path
       style="fill:#adefd1"
       id="path12265"
       d="m 51.243294,194.77759 c 4.870206,6.59259 8.955342,13.71164 13.149867,20.73971 2.739323,4.58975 9.230209,0.71576 6.490886,-3.87399 v 0 c -4.360418,-7.30576 -8.613085,-14.70353 -13.699912,-21.53967 -3.30498,-4.20081 -9.245822,0.47314 -5.940841,4.67395 z" />
    <path
       style="fill:#adefd1"
       id="path12257-3"
       d="m 263.99887,58.493238 c 5.1198,5.98754 9.54055,12.53044 14.09575,18.94496 3.09499,4.35784 9.25791,-0.0191 6.16292,-4.37697 v 0 c -4.79313,-6.7482 -9.44037,-13.6375 -14.88805,-19.88737 -3.76136,-3.79761 -9.13199,1.52177 -5.37062,5.31938 z" />
    <path
       style="fill:#adefd1"
       id="path12261-3"
       d="m 320.98947,154.14445 c 8.3475,13.66206 15.97971,27.74394 24.24435,41.45848 2.54251,3.98168 4.99666,8.01819 7.49483,12.02757 2.82668,4.53646 9.24222,0.53893 6.41553,-3.99754 v 0 c -2.47851,-3.97757 -4.91268,-7.9825 -7.43622,-11.93194 -8.45539,-14.02766 -16.18655,-28.48148 -24.88181,-42.35995 -3.39651,-4.12716 -9.23319,0.67623 -5.83668,4.80338 z" />
    <path
       style="fill:#adefd1"
       id="path12265-6"
       d="m 242.47759,147.05205 c 4.87021,6.59259 8.95535,13.71164 13.14987,20.73971 2.73932,4.58975 9.23021,0.71576 6.49089,-3.87399 v 0 c -4.36042,-7.30576 -8.61309,-14.70353 -13.69991,-21.53967 -3.30498,-4.20081 -9.24583,0.47314 -5.94085,4.67395 z" />
    <path
       style="fill:#adefd1"
       id="path12261-8"
       d="m 526.7294,170.66325 c 8.3475,13.66206 15.97971,27.74394 24.24435,41.45848 2.54251,3.98168 4.99666,8.01819 7.49483,12.02757 2.82668,4.53646 9.24222,0.53893 6.41553,-3.99754 v 0 c -2.47851,-3.97757 -4.91268,-7.9825 -7.43622,-11.93194 -8.45539,-14.02766 -16.18655,-28.48148 -24.88181,-42.35995 -3.39651,-4.12716 -9.23319,0.67623 -5.83668,4.80338 z" />
    <path
       style="fill:#adefd1"
       id="path12265-7"
       d="m 448.21752,163.57085 c 4.87021,6.59259 8.95535,13.71164 13.14987,20.73971 2.73932,4.58975 9.23021,0.71576 6.49089,-3.87399 v 0 c -4.36042,-7.30576 -8.61309,-14.70353 -13.69992,-21.53967 -3.30498,-4.20081 -9.24582,0.47314 -5.94084,4.67395 z" />
    <path
       style="fill:#adefd1"
       id="path12267-7"
       d="m 597.04641,51.403551 c 3.50134,6.1127 6.76567,12.366334 9.95536,18.647504 2.42074,4.76548 9.16013,1.34203 6.73939,-3.423437 v 0 c -3.32285,-6.539399 -6.71059,-13.05923 -10.3952,-19.402001 -2.95425,-4.454451 -9.25379,-0.276517 -6.29955,4.177934 z" />
    <path
       style="fill:#adefd1"
       id="path12261-30"
       d="m 134.6863,35.302404 c 8.3475,13.66206 15.97971,27.74394 24.24435,41.45848 2.54251,3.98168 4.99666,8.01819 7.49483,12.02757 2.82668,4.53646 9.24222,0.53893 6.41553,-3.99754 v 0 c -2.47851,-3.97757 -4.91268,-7.9825 -7.43622,-11.93194 -8.45539,-14.02766 -16.18655,-28.48148 -24.88181,-42.35995 -3.39651,-4.12716 -9.23319,0.67623 -5.83668,4.80338 z" />
    <path
       style="fill:#adefd1"
       id="path12259-5"
       d="m 721.02005,124.13551 c 5.38774,9.07536 10.89113,18.08201 16.41251,27.07655 2.79632,4.55525 9.23841,0.60065 6.44209,-3.9546 v 0 c -5.52526,-9.00058 -11.03155,-18.01382 -16.42378,-27.09486 -2.80928,-4.54727 -9.24009,-0.57436 -6.43082,3.97291 z" />
    <path
       style="fill:#adefd1"
       id="path12261-4"
       d="m 726.27402,234.43153 c 8.3475,13.66206 15.97971,27.74394 24.24435,41.45848 2.54251,3.98168 4.99666,8.01819 7.49483,12.02757 2.82668,4.53646 9.24222,0.53893 6.41553,-3.99754 v 0 c -2.47851,-3.97757 -4.91268,-7.9825 -7.43622,-11.93194 -8.45539,-14.02766 -16.18655,-28.48148 -24.88181,-42.35995 -3.39651,-4.12716 -9.23319,0.67623 -5.83668,4.80338 z" />
    <path
       style="fill:#adefd1"
       id="path12265-77"
       d="m 837.21666,75.630656 c 4.8702,6.59259 8.9553,13.71164 13.1499,20.73971 2.7393,4.589754 9.2302,0.71576 6.4908,-3.87399 v 0 c -4.3604,-7.30576 -8.613,-14.70353 -13.6999,-21.53967 -3.3049,-4.20081 -9.2458,0.47314 -5.9408,4.67395 z" />
    <path
       style="fill:#adefd1"
       id="path12261-28"
       d="m 715.40828,24.487115 c 8.3475,13.66206 15.97971,27.74394 24.24435,41.45848 2.54251,3.98168 4.99666,8.01819 7.49483,12.02757 2.82668,4.53646 9.24222,0.53893 6.41553,-3.99754 v 0 c -2.47851,-3.97757 -4.91268,-7.9825 -7.43622,-11.93194 -8.45539,-14.02766 -16.18655,-28.48148 -24.88181,-42.35995 -3.39651,-4.12716 -9.23319,0.67623 -5.83668,4.80338 z" />
    <path
       style="fill:#adefd1"
       id="path12257-0"
       d="m 985.25495,121.44356 c 5.1198,5.98754 9.54055,12.53044 14.09575,18.94496 3.095,4.35784 9.2579,-0.0191 6.1629,-4.37697 v 0 c -4.7931,-6.7482 -9.44035,-13.6375 -14.88803,-19.88737 -3.76136,-3.7976 -9.13199,1.52177 -5.37062,5.31938 z" />
    <path
       style="fill:#adefd1"
       id="path12257-52"
       d="m 256.74765,169.23715 c 5.1199,5.98754 9.5406,12.53044 14.0958,18.94496 3.095,4.35784 9.2579,-0.0191 6.1629,-4.37697 v 0 c -4.7931,-6.7482 -9.4404,-13.6375 -14.888,-19.88737 -3.7614,-3.79761 -9.132,1.52177 -5.3707,5.31938 z" />
    <path
       style="fill:#adefd1"
       id="path12261-02"
       d="m 313.73825,264.88836 c 8.3476,13.66206 15.9798,27.74394 24.2444,41.45848 2.5425,3.98168 4.9967,8.01819 7.4948,12.02757 2.8267,4.53646 9.2423,0.53893 6.4156,-3.99754 v 0 c -2.4785,-3.97757 -4.9127,-7.9825 -7.4363,-11.93194 -8.4553,-14.02766 -16.1865,-28.48148 -24.8818,-42.35995 -3.3965,-4.12716 -9.2332,0.67623 -5.8367,4.80338 z" />
    <path
       style="fill:#adefd1"
       id="path12261-284"
       d="m 1161.4833,31.053934 c 8.3475,13.66206 15.9797,27.74394 24.2443,41.45848 2.5425,3.98168 4.9967,8.01819 7.4949,12.02757 2.8266,4.53646 9.2422,0.53893 6.4155,-3.99754 v 0 c -2.4785,-3.97757 -4.9127,-7.9825 -7.4362,-11.93194 -8.4554,-14.02766 -16.1866,-28.48148 -24.8818,-42.35995 -3.3966,-4.12716 -9.2332,0.67623 -5.8367,4.80338 z" />
    <path
       style="fill:#adefd1"
       id="path12265-2"
       d="m 1082.9714,23.961534 c 4.8702,6.59259 8.9553,13.71164 13.1499,20.73971 2.7393,4.58975 9.2302,0.71576 6.4908,-3.87399 v 0 c -4.3604,-7.30576 -8.613,-14.70353 -13.6999,-21.53967 -3.3049,-4.20081 -9.2458,0.47314 -5.9408,4.67395 z" />
    <path
       style="fill:#adefd1"
       id="path12261-9"
       d="m 1278.5693,243.24379 c 8.3475,13.66206 15.9797,27.74394 24.2443,41.45848 2.5425,3.98168 4.9967,8.01819 7.4949,12.02757 2.8266,4.53646 9.2422,0.53893 6.4155,-3.99754 v 0 c -2.4785,-3.97757 -4.9127,-7.9825 -7.4362,-11.93194 -8.4554,-14.02766 -16.1866,-28.48148 -24.8818,-42.35995 -3.3966,-4.12716 -9.2332,0.67623 -5.8367,4.80338 z" />
    <path
       style="fill:#adefd1"
       id="path12265-13"
       d="m 1200.0574,236.15139 c 4.8702,6.59259 8.9553,13.71164 13.1499,20.73971 2.7393,4.58975 9.2302,0.71576 6.4908,-3.87399 v 0 c -4.3604,-7.30576 -8.613,-14.70353 -13.6999,-21.53967 -3.3049,-4.20081 -9.2458,0.47314 -5.9408,4.67395 z" />
    <path
       style="fill:#adefd1"
       id="path12261-39"
       d="m 1374.4719,64.477213 c 8.3475,13.66206 15.9797,27.74394 24.2443,41.458477 2.5425,3.98168 4.9967,8.01819 7.4948,12.02757 2.8267,4.53646 9.2423,0.53893 6.4156,-3.99754 v 0 c -2.4785,-3.97757 -4.9127,-7.9825 -7.4362,-11.93194 -8.4554,-14.027657 -16.1866,-28.481477 -24.8818,-42.359947 -3.3966,-4.12716 -9.2332,0.67623 -5.8367,4.80338 z" />
    <path
       style="fill:#adefd1"
       id="path12261-7"
       d="m 1794.7148,208.39769 c 8.3475,13.66206 15.9797,27.74394 24.2443,41.45848 2.5425,3.98168 4.9967,8.01819 7.4949,12.02757 2.8266,4.53646 9.2422,0.53893 6.4155,-3.99754 v 0 c -2.4785,-3.97757 -4.9127,-7.9825 -7.4362,-11.93194 -8.4554,-14.02766 -16.1866,-28.48148 -24.8818,-42.35995 -3.3966,-4.12716 -9.2332,0.67623 -5.8367,4.80338 z" />
    <path
       style="fill:#adefd1"
       id="path12265-69"
       d="m 1716.2029,201.30529 c 4.8702,6.59259 8.9553,13.71164 13.1499,20.73971 2.7393,4.58975 9.2302,0.71576 6.4908,-3.87399 v 0 c -4.3604,-7.30576 -8.613,-14.70353 -13.6999,-21.53967 -3.3049,-4.20081 -9.2458,0.47314 -5.9408,4.67395 z" />
    <path
       style="fill:#adefd1"
       id="path12267-8"
       d="m 1865.0318,89.137993 c 3.5013,6.1127 6.7657,12.366327 9.9553,18.647497 2.4208,4.76548 9.1602,1.34203 6.7394,-3.42344 v 0 c -3.3228,-6.539397 -6.7106,-13.059227 -10.3952,-19.401997 -2.9542,-4.45445 -9.2538,-0.27651 -6.2995,4.17794 z" />
    <path
       style="fill:#adefd1"
       id="path12261-29"
       d="m 1623.1363,44.161677 c 8.3475,13.66206 15.9797,27.74394 24.2443,41.45848 2.5425,3.98168 4.9967,8.01819 7.4949,12.02757 2.8266,4.536463 9.2422,0.53893 6.4155,-3.99754 v 0 c -2.4785,-3.97757 -4.9127,-7.9825 -7.4362,-11.93194 -8.4554,-14.02766 -16.1866,-28.48148 -24.8818,-42.35995 -3.3966,-4.12716 -9.2332,0.67623 -5.8367,4.80338 z" />
    <path
       style="fill:#adefd1"
       id="path12259-32"
       d="m 1507.9715,126.39061 c 5.3877,9.07536 10.8911,18.08201 16.4125,27.07655 2.7963,4.55525 9.2384,0.60065 6.4421,-3.9546 v 0 c -5.5253,-9.00058 -11.0315,-18.01382 -16.4238,-27.09487 -2.8093,-4.54727 -9.2401,-0.57436 -6.4308,3.97292 z" />
    <path
       style="fill:#adefd1"
       id="path12261-1"
       d="m 1513.2255,236.68663 c 8.3475,13.66206 15.9797,27.74394 24.2443,41.45848 2.5425,3.98168 4.9967,8.01819 7.4949,12.02757 2.8266,4.53646 9.2422,0.53893 6.4155,-3.99754 v 0 c -2.4785,-3.97757 -4.9127,-7.9825 -7.4362,-11.93194 -8.4554,-14.02766 -16.1866,-28.48148 -24.8818,-42.35995 -3.3966,-4.12716 -9.2332,0.67623 -5.8367,4.80338 z" />
    <path
       style="fill:#adefd1"
       id="path12265-91"
       d="m 1434.7136,229.59423 c 4.8702,6.59259 8.9553,13.71164 13.1499,20.73971 2.7393,4.58975 9.2302,0.71576 6.4908,-3.87399 v 0 c -4.3604,-7.30576 -8.613,-14.70353 -13.6999,-21.53967 -3.3049,-4.20081 -9.2458,0.47314 -5.9408,4.67395 z" />
    <path
       style="fill:#adefd1"
       id="path12257-10"
       d="m 1614.3097,283.4392 c 5.1198,5.98754 9.5405,12.53044 14.0957,18.94496 3.095,4.35784 9.2579,-0.0191 6.1629,-4.37697 v 0 c -4.7931,-6.7482 -9.4403,-13.6375 -14.888,-19.88737 -3.7614,-3.79761 -9.132,1.52177 -5.3706,5.31938 z" />
    <path
       style="fill:#adefd1"
       id="path12259-7"
       d="m 1666.0463,268.79438 c 5.3877,9.07537 10.8911,18.08202 16.4125,27.07656 2.7963,4.55525 9.2384,0.60065 6.4421,-3.9546 v 0 c -5.5253,-9.00058 -11.0315,-18.01382 -16.4238,-27.09487 -2.8093,-4.54727 -9.2401,-0.57436 -6.4308,3.97291 z" />
    <path
       style="fill:#adefd1"
       id="path12261-58"
       d="m 1671.3003,379.09041 c 8.3475,13.66206 15.9797,27.74394 24.2443,41.45848 2.5425,3.98168 4.9967,8.01819 7.4948,12.02757 2.8267,4.53646 9.2423,0.53893 6.4156,-3.99754 v 0 c -2.4785,-3.97757 -4.9127,-7.9825 -7.4362,-11.93194 -8.4554,-14.02766 -16.1866,-28.48148 -24.8818,-42.35995 -3.3966,-4.12716 -9.2332,0.67623 -5.8367,4.80338 z" />
    <path
       style="fill:#adefd1"
       id="path12263-70"
       d="m 1742.7201,346.56127 c 1.9677,3.65959 3.897,7.33878 5.8669,10.99725 2.5342,4.70608 9.1896,1.1221 6.6554,-3.58398 v 0 c -2.008,-3.72847 -3.9701,-7.48055 -5.9836,-11.20601 -2.6819,-4.62356 -9.2206,-0.83082 -6.5387,3.79274 z" />
    <path
       style="fill:#adefd1"
       id="path12265-48"
       d="m 1592.7884,371.99801 c 4.8702,6.59259 8.9553,13.71164 13.1499,20.73971 2.7393,4.58975 9.2302,0.71576 6.4908,-3.87399 v 0 c -4.3604,-7.30576 -8.613,-14.70353 -13.6999,-21.53967 -3.3049,-4.20081 -9.2458,0.47314 -5.9408,4.67395 z" />
    <path
       style="fill:#adefd1"
       id="path12267-042"
       d="m 1741.6173,259.83071 c 3.5013,6.1127 6.7656,12.36633 9.9553,18.6475 2.4208,4.76548 9.1602,1.34203 6.7394,-3.42344 v 0 c -3.3228,-6.5394 -6.7106,-13.05923 -10.3952,-19.402 -2.9542,-4.45445 -9.2538,-0.27652 -6.2995,4.17794 z" />
    <path
       style="fill:#adefd1"
       id="path12259-61"
       d="m 969.35368,196.40449 c 5.38774,9.07537 10.89113,18.08202 16.41251,27.07656 2.79632,4.55525 9.23841,0.60065 6.44209,-3.9546 v 0 c -5.52526,-9.00058 -11.03155,-18.01382 -16.42378,-27.09487 -2.80928,-4.54727 -9.24009,-0.57436 -6.43082,3.97291 z" />
    <path
       style="fill:#adefd1"
       id="path12261-04"
       d="m 974.60765,306.70052 c 8.3475,13.66206 15.97971,27.74394 24.24435,41.45848 2.5425,3.98168 4.9967,8.01819 7.4948,12.02757 2.8267,4.53646 9.2423,0.53893 6.4156,-3.99754 v 0 c -2.4785,-3.97757 -4.9127,-7.9825 -7.4363,-11.93194 -8.45535,-14.02766 -16.18651,-28.48148 -24.88177,-42.35995 -3.39651,-4.12716 -9.23319,0.67623 -5.83668,4.80338 z" />
    <path
       style="fill:#adefd1"
       id="path12263-2"
       d="m 1046.0275,274.17138 c 1.9677,3.65959 3.897,7.33878 5.8669,10.99725 2.5342,4.70608 9.1896,1.1221 6.6554,-3.58398 v 0 c -2.0081,-3.72847 -3.9701,-7.48055 -5.9836,-11.20601 -2.6819,-4.62356 -9.2206,-0.83082 -6.5387,3.79274 z" />
    <path
       style="fill:#adefd1"
       id="path12265-22"
       d="m 896.09577,299.60812 c 4.87021,6.59259 8.95535,13.71164 13.14987,20.73971 2.73932,4.58975 9.23021,0.71576 6.49089,-3.87399 v 0 c -4.36042,-7.30576 -8.61309,-14.70353 -13.69992,-21.53967 -3.30498,-4.20081 -9.24582,0.47314 -5.94084,4.67395 z" />
    <path
       style="fill:#adefd1"
       id="path12257-8"
       d="m 1089.8664,389.67822 c 5.1198,5.98754 9.5405,12.53044 14.0957,18.94496 3.095,4.35784 9.2579,-0.0191 6.1629,-4.37697 v 0 c -4.7931,-6.7482 -9.4403,-13.6375 -14.888,-19.88737 -3.7614,-3.79761 -9.132,1.52177 -5.3706,5.31938 z" />
    <path
       style="fill:#adefd1"
       id="path12259-0"
       d="m 1141.603,375.0334 c 5.3877,9.07537 10.8911,18.08202 16.4125,27.07656 2.7963,4.55525 9.2384,0.60065 6.4421,-3.9546 v 0 c -5.5253,-9.00058 -11.0315,-18.01382 -16.4238,-27.09487 -2.8093,-4.54727 -9.2401,-0.57436 -6.4308,3.97291 z" />
    <path
       style="fill:#adefd1"
       id="path12261-21"
       d="m 1146.857,485.32943 c 8.3475,13.66206 15.9797,27.74394 24.2443,41.45848 2.5425,3.98168 4.9967,8.01819 7.4949,12.02757 2.8266,4.53646 9.2422,0.53893 6.4155,-3.99754 v 0 c -2.4785,-3.97757 -4.9127,-7.9825 -7.4362,-11.93194 -8.4554,-14.02766 -16.1866,-28.48148 -24.8818,-42.35995 -3.3966,-4.12716 -9.2332,0.67623 -5.8367,4.80338 z" />
    <path
       style="fill:#adefd1"
       id="path12263-05"
       d="m 1218.2768,452.80029 c 1.9677,3.65959 3.897,7.33878 5.8669,10.99725 2.5342,4.70608 9.1896,1.1221 6.6554,-3.58398 v 0 c -2.008,-3.72847 -3.9701,-7.48055 -5.9836,-11.20601 -2.6819,-4.62356 -9.2206,-0.83082 -6.5387,3.79274 z" />
    <path
       style="fill:#adefd1"
       id="path12265-1"
       d="m 1068.3451,478.23703 c 4.8702,6.59259 8.9553,13.71164 13.1499,20.73971 2.7393,4.58975 9.2302,0.71576 6.4908,-3.87399 v 0 c -4.3604,-7.30576 -8.613,-14.70353 -13.6999,-21.53967 -3.3049,-4.20081 -9.2458,0.47314 -5.9408,4.67395 z" />
    <path
       style="fill:#adefd1"
       id="path12267-1"
       d="m 1217.174,366.06973 c 3.5013,6.1127 6.7657,12.36633 9.9553,18.6475 2.4208,4.76548 9.1602,1.34203 6.7394,-3.42344 v 0 c -3.3228,-6.5394 -6.7106,-13.05923 -10.3952,-19.402 -2.9542,-4.45445 -9.2538,-0.27652 -6.2995,4.17794 z" />
    <path
       style="fill:#adefd1;stroke-width:1.03521"
       id="path14826"
       d="m -53.422913,330.77865 c 11.665923,0 23.331845,0 34.997768,0 3.506811,0.27111 7.035361,-0.22772 10.543397,0 0.2874299,0.0186 0.5146945,0.29019 0.7942932,0.364 1.1237975,0.29667 2.2677317,0.49763 3.4021007,0.74378 10.7331124,2.32908 2.618031,0.54387 14.0263111,3.07255 12.942007,2.45944 24.997039,8.08214 37.188746,13.12379 24.637615,10.51667 50.380049,17.64657 76.256947,23.63907 18.45417,4.28313 37.23873,6.11506 56.07326,6.77561 15.51124,0.30244 31.02727,0.13933 46.54019,0.0896 24.29574,-0.0457 48.58104,0.73709 72.87698,0.74294 25.65157,-0.14612 51.27947,-1.72386 76.75518,-4.90845 18.29828,-2.28236 36.42024,-5.61409 54.41844,-9.78144 13.94747,-3.48934 27.81853,-7.31111 41.61396,-11.43418 13.83456,-4.21226 27.49463,-9.00381 41.38464,-12.99901 16.87433,-5.06473 34.22114,-7.96972 51.59413,-10.18943 19.65705,-2.40821 39.44597,-2.98284 59.20989,-3.36177 23.09204,-0.25695 46.18597,-0.19104 69.27889,-0.16984 28.47874,0.19064 56.96429,-0.38452 85.43322,0.51727 25.3494,1.12261 50.60894,4.00744 75.76974,7.41976 21.65629,3.0805 43.28377,6.37683 64.90073,9.7569 30.62529,4.73435 61.23004,9.59 92.0132,12.99111 26.5696,2.78172 53.2763,3.30223 79.9511,3.63159 22.5551,0.49758 44.8813,-3.11662 67.1274,-6.58874 27.5338,-4.10574 54.9203,-9.16446 82.2326,-14.6905 23.4555,-5.37097 47.1226,-9.51276 70.8137,-13.46823 19.4518,-2.99658 38.896,-6.14011 58.4064,-8.6743 18.3131,-1.65809 36.73,-1.79773 55.0939,-1.40862 4.2062,0.18216 8.4171,0.26465 12.6184,0.5465 8.3052,0.55714 22.3922,2.08594 30.4155,2.97385 18.6935,2.0687 37.3112,4.64583 55.9433,7.26721 46.6915,6.91482 93.5165,12.73274 140.3409,18.50174 31.5528,3.80084 63.0932,7.73973 94.6643,11.36261 24.114,2.82046 48.3083,4.29502 72.5484,4.92061 24.9671,0.52795 49.9376,0.4786 74.9041,-8.4e-4 16.8176,-0.0457 33.505,-2.27454 50.1388,-4.67994 66.2049,-9.63983 53.4837,-109.97701 -12.7212,-100.33717 v 0 c -12.9768,1.90517 -25.986,3.81197 -39.1175,3.77443 -23.6521,0.45803 -47.3078,0.5046 -70.9607,0.0129 -21.6339,-0.54206 -43.223,-1.85316 -64.7444,-4.37503 -31.3239,-3.58493 -62.6147,-7.5117 -93.9203,-11.27416 -46.3254,-5.70703 -92.6517,-11.45965 -138.8452,-18.30449 -36.3783,-5.10823 -72.8628,-10.29792 -109.5653,-11.631 -22.7565,-0.40348 -45.5834,-0.26505 -68.2533,2.13981 -20.5381,2.70708 -41.0185,5.93835 -61.4942,9.13415 -24.688,4.12349 -49.352,8.44196 -73.798,14.01922 -26.0136,5.26506 -52.0959,10.09211 -78.3227,13.98998 -17.3761,2.71405 -34.8003,5.85694 -52.4243,5.53748 -23.8204,-0.28968 -47.6727,-0.68108 -71.4039,-3.1112 -29.44588,-3.2079 -58.70261,-7.98216 -87.99898,-12.4572 -22.22422,-3.47502 -44.45957,-6.86247 -66.72507,-10.02272 -28.1975,-3.79616 -56.50168,-7.00696 -84.91244,-8.17428 -5.86965,-0.17154 -11.73778,-0.42011 -17.60895,-0.51461 -23.46758,-0.37779 -46.94941,0.25479 -70.41832,-0.0433 -23.6892,-0.0218 -47.37951,-0.0906 -71.06771,0.18634 -22.98756,0.4496 -45.99894,1.21782 -68.85542,4.07887 -21.81348,2.86295 -43.57737,6.58612 -64.77715,12.92945 -14.18545,4.09444 -28.16809,8.87613 -42.27641,13.26101 -11.99112,3.59891 -24.05553,6.9014 -36.17005,9.98922 -15.05661,3.49786 -30.20803,6.29935 -45.52295,8.19046 -21.78985,2.80585 -43.73275,4.00592 -65.67571,4.20873 -24.38695,0.0119 -48.76338,-0.83198 -73.15059,-0.7425 -14.42991,0.0463 -28.86214,0.18825 -43.291,-0.0401 -13.17776,-0.41844 -26.32476,-1.56912 -39.24044,-4.57759 -21.057,-4.78389 -42.01702,-10.54426 -62.045247,-19.09989 -17.119741,-7.07686 -33.932773,-14.268 -52.075927,-17.81528 -8.854519,-1.95965 -17.752608,-4.2191 -26.741235,-5.3646 -8.2292497,-1.04874 -8.857024,-0.91132 -15.418228,-0.91132 -1.910073,0 -3.820145,0 -5.730218,0 -11.665923,0 -23.331845,0 -34.997768,0 -66.813247,0 -66.813247,101.25909 0,101.25909 z" />
  </g>
</svg>
